# xmcd
#
# Track frame offsets:
#	150
#	11340
#	25517
#	38647
#	51682
#	66015
#	78157
#	91590
#	110860
#	122870
#
# Disc length: 1814 seconds
#
# Revision: 1
# Processed by: cddbd v1.5.2PL0 Copyright (c) Steve Scherf et al.
# Submitted via: audiograbber 1.83.01
#
DISCID=7507140a
DTITLE=Tammy Wynette - Biggest Hits (+ track dates)
DYEAR=1900
DGENRE=
TTITLE0=Run, Woman, Run (1970)
TTITLE1=Starting Over (1980)
TTITLE2=Kids Say the Darndest Things (1973)
TTITLE3=My Man (Understands) (1972)
TTITLE4=Crying in the Rain (1981)
TTITLE5=Stand by your Man (1968)
TTITLE6=Cowboys Don't Shoot Straight (Like They Used to) (1981)
TTITLE7=Bedtime Story (1972)
TTITLE8=TillI I Get It Right (1972)
TTITLE9=D-I-V-O-R-C-E (1968)
EXTD=Track dates supplied.\nTitle track 9 corrected.
EXTT0=
EXTT1=
EXTT2=
EXTT3=
EXTT4=
EXTT5=
EXTT6=
EXTT7=
EXTT8=
EXTT9=
PLAYORDER=
